<?xml version="1.0" standalone="no"?>
<!DOCTYPE svg PUBLIC "-//W3C//DTD SVG 20010904//EN"
 "http://www.w3.org/TR/2001/REC-SVG-20010904/DTD/svg10.dtd">
<svg version="1.0" xmlns="http://www.w3.org/2000/svg"
 width="1268.000000pt" height="1246.000000pt" viewBox="0 0 1268.000000 1246.000000"
 preserveAspectRatio="xMidYMid meet">

<g transform="translate(0.000000,1246.000000) scale(0.100000,-0.100000)"
fill="#000000" stroke="none">
<path d="M5600 8585 c-360 -44 -707 -176 -1035 -394 -152 -101 -170 -121 -186
-210 -10 -58 -10 -88 -1 -145 53 -315 412 -539 1062 -660 74 -14 158 -33 185
-41 74 -23 235 -34 360 -24 129 10 220 26 448 79 439 103 679 205 833 355 160
157 193 341 104 577 -20 54 -25 59 -98 101 -258 149 -575 268 -868 327 -247
49 -573 63 -804 35z"/>
<path d="M7786 7748 c-2 -7 -8 -40 -15 -73 -14 -76 -74 -202 -135 -282 -107
-141 -281 -278 -491 -385 -198 -100 -492 -200 -630 -213 -253 -24 -403 -136
-450 -336 -12 -54 -15 -168 -15 -705 l0 -642 28 -6 c56 -14 350 -18 448 -7
622 73 1247 397 1800 934 l147 142 -7 95 c-35 505 -214 976 -499 1317 -88 104
-175 182 -181 161z"/>
<path d="M3882 7670 c-325 -324 -543 -849 -580 -1393 l-8 -108 136 -132 c544
-532 1127 -843 1755 -938 94 -14 361 -18 458 -6 l67 9 0 662 c0 728 1 720 -62
818 -39 62 -94 111 -165 146 -63 32 -180 62 -241 62 -48 0 -215 46 -364 101
-329 120 -597 298 -745 493 -62 83 -128 220 -143 300 -7 36 -16 66 -21 66 -4
0 -44 -36 -87 -80z"/>
<path d="M3320 5743 c0 -38 61 -357 91 -478 140 -563 405 -953 896 -1319 418
-312 911 -521 1371 -581 l52 -7 0 491 c0 409 -3 505 -16 569 -39 191 -151 325
-319 380 -38 13 -113 24 -205 31 -467 34 -893 193 -1350 502 -152 103 -314
232 -427 342 -70 68 -93 85 -93 70z"/>
<path d="M8360 5662 c-552 -503 -1155 -787 -1765 -833 -166 -12 -198 -19 -288
-66 -113 -60 -194 -169 -232 -314 -20 -73 -21 -124 -17 -692 l2 -398 48 6
c531 73 1093 335 1537 716 377 324 606 693 724 1170 27 109 103 501 98 505 -1
1 -49 -41 -107 -94z"/>
<path d="M2421 5530 c-123 -105 -335 -155 -555 -130 -59 7 -110 10 -113 6 -8
-8 32 -241 72 -411 143 -611 386 -1138 731 -1585 201 -260 580 -596 969 -859
216 -146 354 -226 579 -337 482 -238 942 -370 1466 -420 229 -22 690 -14 910
15 384 52 757 151 1089 287 124 51 517 249 651 329 673 398 1209 975 1564
1684 187 372 328 800 390 1182 l6 35 -182 0 c-157 0 -194 3 -261 22 -90 25
-198 79 -255 128 l-40 34 -17 -98 c-69 -397 -187 -767 -342 -1075 -81 -160
-152 -268 -280 -427 -630 -783 -1391 -1218 -2353 -1347 -192 -26 -705 -26
-905 0 -315 41 -643 123 -955 239 -689 257 -1232 693 -1612 1293 -88 140 -243
454 -302 611 -88 239 -159 524 -187 752 -7 57 -18 102 -23 102 -6 -1 -26 -14
-45 -30z"/>
</g>
</svg>
